<mxfile host="app.diagrams.net" modified="2023-08-10T09:35:49.334Z" agent="Mozilla/5.0 (Windows NT 10.0; Win64; x64) AppleWebKit/537.36 (KHTML, like Gecko) Chrome/115.0.0.0 Safari/537.36" etag="ePARyg8teqJwEUZeh4BY" version="21.6.6" type="github">
  <diagram id="C5RBs43oDa-KdzZeNtuy" name="Page-1">
    <mxGraphModel dx="1562" dy="822" grid="1" gridSize="10" guides="1" tooltips="1" connect="1" arrows="1" fold="1" page="1" pageScale="1" pageWidth="827" pageHeight="1169" math="0" shadow="0">
      <root>
        <mxCell id="WIyWlLk6GJQsqaUBKTNV-0" />
        <mxCell id="WIyWlLk6GJQsqaUBKTNV-1" parent="WIyWlLk6GJQsqaUBKTNV-0" />
        <mxCell id="8wjIcGyNlAFSRhuU1HUV-47" style="edgeStyle=orthogonalEdgeStyle;rounded=0;orthogonalLoop=1;jettySize=auto;html=1;entryX=0;entryY=0.5;entryDx=0;entryDy=0;" parent="WIyWlLk6GJQsqaUBKTNV-1" source="zkfFHV4jXpPFQw0GAbJ--0" target="8wjIcGyNlAFSRhuU1HUV-11" edge="1">
          <mxGeometry relative="1" as="geometry" />
        </mxCell>
        <mxCell id="zkfFHV4jXpPFQw0GAbJ--0" value="User" style="swimlane;fontStyle=2;align=center;verticalAlign=top;childLayout=stackLayout;horizontal=1;startSize=26;horizontalStack=0;resizeParent=1;resizeLast=0;collapsible=1;marginBottom=0;rounded=0;shadow=0;strokeWidth=1;" parent="WIyWlLk6GJQsqaUBKTNV-1" vertex="1">
          <mxGeometry x="70" y="40" width="160" height="260" as="geometry">
            <mxRectangle x="220" y="120" width="160" height="26" as="alternateBounds" />
          </mxGeometry>
        </mxCell>
        <mxCell id="zkfFHV4jXpPFQw0GAbJ--1" value="id&#xa;" style="text;align=center;verticalAlign=top;spacingLeft=4;spacingRight=4;overflow=hidden;rotatable=0;points=[[0,0.5],[1,0.5]];portConstraint=eastwest;" parent="zkfFHV4jXpPFQw0GAbJ--0" vertex="1">
          <mxGeometry y="26" width="160" height="26" as="geometry" />
        </mxCell>
        <mxCell id="zkfFHV4jXpPFQw0GAbJ--2" value="LastName" style="text;align=center;verticalAlign=top;spacingLeft=4;spacingRight=4;overflow=hidden;rotatable=0;points=[[0,0.5],[1,0.5]];portConstraint=eastwest;rounded=0;shadow=0;html=0;" parent="zkfFHV4jXpPFQw0GAbJ--0" vertex="1">
          <mxGeometry y="52" width="160" height="28" as="geometry" />
        </mxCell>
        <mxCell id="zkfFHV4jXpPFQw0GAbJ--3" value="FirstName" style="text;align=center;verticalAlign=top;spacingLeft=4;spacingRight=4;overflow=hidden;rotatable=0;points=[[0,0.5],[1,0.5]];portConstraint=eastwest;rounded=0;shadow=0;html=0;" parent="zkfFHV4jXpPFQw0GAbJ--0" vertex="1">
          <mxGeometry y="80" width="160" height="26" as="geometry" />
        </mxCell>
        <mxCell id="8wjIcGyNlAFSRhuU1HUV-1" value="Adress" style="text;html=1;strokeColor=none;fillColor=none;align=center;verticalAlign=middle;whiteSpace=wrap;rounded=0;" parent="zkfFHV4jXpPFQw0GAbJ--0" vertex="1">
          <mxGeometry y="106" width="160" height="30" as="geometry" />
        </mxCell>
        <mxCell id="8wjIcGyNlAFSRhuU1HUV-2" value="Mail" style="text;html=1;strokeColor=none;fillColor=none;align=center;verticalAlign=middle;whiteSpace=wrap;rounded=0;" parent="zkfFHV4jXpPFQw0GAbJ--0" vertex="1">
          <mxGeometry y="136" width="160" height="30" as="geometry" />
        </mxCell>
        <mxCell id="8wjIcGyNlAFSRhuU1HUV-3" value="Regime" style="text;html=1;strokeColor=none;fillColor=none;align=center;verticalAlign=middle;whiteSpace=wrap;rounded=0;" parent="zkfFHV4jXpPFQw0GAbJ--0" vertex="1">
          <mxGeometry y="166" width="160" height="30" as="geometry" />
        </mxCell>
        <mxCell id="8wjIcGyNlAFSRhuU1HUV-4" value="Role" style="text;html=1;strokeColor=none;fillColor=none;align=center;verticalAlign=middle;whiteSpace=wrap;rounded=0;" parent="zkfFHV4jXpPFQw0GAbJ--0" vertex="1">
          <mxGeometry y="196" width="160" height="30" as="geometry" />
        </mxCell>
        <mxCell id="8wjIcGyNlAFSRhuU1HUV-29" value="Allergies" style="text;html=1;strokeColor=none;fillColor=none;align=center;verticalAlign=middle;whiteSpace=wrap;rounded=0;" parent="zkfFHV4jXpPFQw0GAbJ--0" vertex="1">
          <mxGeometry y="226" width="160" height="30" as="geometry" />
        </mxCell>
        <mxCell id="8wjIcGyNlAFSRhuU1HUV-48" style="edgeStyle=orthogonalEdgeStyle;rounded=0;orthogonalLoop=1;jettySize=auto;html=1;" parent="WIyWlLk6GJQsqaUBKTNV-1" source="zkfFHV4jXpPFQw0GAbJ--17" target="8wjIcGyNlAFSRhuU1HUV-44" edge="1">
          <mxGeometry relative="1" as="geometry">
            <Array as="points">
              <mxPoint x="400" y="380" />
              <mxPoint x="400" y="330" />
            </Array>
          </mxGeometry>
        </mxCell>
        <mxCell id="zkfFHV4jXpPFQw0GAbJ--17" value="Receipe" style="swimlane;fontStyle=0;align=center;verticalAlign=top;childLayout=stackLayout;horizontal=1;startSize=26;horizontalStack=0;resizeParent=1;resizeLast=0;collapsible=1;marginBottom=0;rounded=0;shadow=0;strokeWidth=1;" parent="WIyWlLk6GJQsqaUBKTNV-1" vertex="1">
          <mxGeometry x="70" y="360" width="160" height="320" as="geometry">
            <mxRectangle x="550" y="140" width="160" height="26" as="alternateBounds" />
          </mxGeometry>
        </mxCell>
        <mxCell id="zkfFHV4jXpPFQw0GAbJ--18" value="id" style="text;align=center;verticalAlign=top;spacingLeft=4;spacingRight=4;overflow=hidden;rotatable=0;points=[[0,0.5],[1,0.5]];portConstraint=eastwest;" parent="zkfFHV4jXpPFQw0GAbJ--17" vertex="1">
          <mxGeometry y="26" width="160" height="26" as="geometry" />
        </mxCell>
        <mxCell id="zkfFHV4jXpPFQw0GAbJ--19" value="Title" style="text;align=center;verticalAlign=top;spacingLeft=4;spacingRight=4;overflow=hidden;rotatable=0;points=[[0,0.5],[1,0.5]];portConstraint=eastwest;rounded=0;shadow=0;html=0;" parent="zkfFHV4jXpPFQw0GAbJ--17" vertex="1">
          <mxGeometry y="52" width="160" height="26" as="geometry" />
        </mxCell>
        <mxCell id="zkfFHV4jXpPFQw0GAbJ--20" value="Description" style="text;align=center;verticalAlign=top;spacingLeft=4;spacingRight=4;overflow=hidden;rotatable=0;points=[[0,0.5],[1,0.5]];portConstraint=eastwest;rounded=0;shadow=0;html=0;" parent="zkfFHV4jXpPFQw0GAbJ--17" vertex="1">
          <mxGeometry y="78" width="160" height="26" as="geometry" />
        </mxCell>
        <mxCell id="zkfFHV4jXpPFQw0GAbJ--21" value="Preparation time" style="text;align=center;verticalAlign=top;spacingLeft=4;spacingRight=4;overflow=hidden;rotatable=0;points=[[0,0.5],[1,0.5]];portConstraint=eastwest;rounded=0;shadow=0;html=0;" parent="zkfFHV4jXpPFQw0GAbJ--17" vertex="1">
          <mxGeometry y="104" width="160" height="26" as="geometry" />
        </mxCell>
        <mxCell id="zkfFHV4jXpPFQw0GAbJ--22" value="Break" style="text;align=center;verticalAlign=top;spacingLeft=4;spacingRight=4;overflow=hidden;rotatable=0;points=[[0,0.5],[1,0.5]];portConstraint=eastwest;rounded=0;shadow=0;html=0;" parent="zkfFHV4jXpPFQw0GAbJ--17" vertex="1">
          <mxGeometry y="130" width="160" height="26" as="geometry" />
        </mxCell>
        <mxCell id="zkfFHV4jXpPFQw0GAbJ--24" value="Cooking Time" style="text;align=center;verticalAlign=top;spacingLeft=4;spacingRight=4;overflow=hidden;rotatable=0;points=[[0,0.5],[1,0.5]];portConstraint=eastwest;" parent="zkfFHV4jXpPFQw0GAbJ--17" vertex="1">
          <mxGeometry y="156" width="160" height="26" as="geometry" />
        </mxCell>
        <mxCell id="zkfFHV4jXpPFQw0GAbJ--25" value="IngrÃ©dients" style="text;align=center;verticalAlign=top;spacingLeft=4;spacingRight=4;overflow=hidden;rotatable=0;points=[[0,0.5],[1,0.5]];portConstraint=eastwest;" parent="zkfFHV4jXpPFQw0GAbJ--17" vertex="1">
          <mxGeometry y="182" width="160" height="26" as="geometry" />
        </mxCell>
        <mxCell id="8wjIcGyNlAFSRhuU1HUV-5" value="Stage" style="text;align=center;verticalAlign=top;spacingLeft=4;spacingRight=4;overflow=hidden;rotatable=0;points=[[0,0.5],[1,0.5]];portConstraint=eastwest;" parent="zkfFHV4jXpPFQw0GAbJ--17" vertex="1">
          <mxGeometry y="208" width="160" height="26" as="geometry" />
        </mxCell>
        <mxCell id="8wjIcGyNlAFSRhuU1HUV-6" value="Possible allergens" style="text;align=center;verticalAlign=top;spacingLeft=4;spacingRight=4;overflow=hidden;rotatable=0;points=[[0,0.5],[1,0.5]];portConstraint=eastwest;" parent="zkfFHV4jXpPFQw0GAbJ--17" vertex="1">
          <mxGeometry y="234" width="160" height="26" as="geometry" />
        </mxCell>
        <mxCell id="8wjIcGyNlAFSRhuU1HUV-7" value="Diet types" style="text;align=center;verticalAlign=top;spacingLeft=4;spacingRight=4;overflow=hidden;rotatable=0;points=[[0,0.5],[1,0.5]];portConstraint=eastwest;" parent="zkfFHV4jXpPFQw0GAbJ--17" vertex="1">
          <mxGeometry y="260" width="160" height="26" as="geometry" />
        </mxCell>
        <mxCell id="8wjIcGyNlAFSRhuU1HUV-8" value="Image URL" style="text;align=center;verticalAlign=top;spacingLeft=4;spacingRight=4;overflow=hidden;rotatable=0;points=[[0,0.5],[1,0.5]];portConstraint=eastwest;" parent="zkfFHV4jXpPFQw0GAbJ--17" vertex="1">
          <mxGeometry y="286" width="160" height="26" as="geometry" />
        </mxCell>
        <mxCell id="8wjIcGyNlAFSRhuU1HUV-26" style="edgeStyle=orthogonalEdgeStyle;rounded=0;orthogonalLoop=1;jettySize=auto;html=1;" parent="WIyWlLk6GJQsqaUBKTNV-1" source="8wjIcGyNlAFSRhuU1HUV-3" target="8wjIcGyNlAFSRhuU1HUV-7" edge="1">
          <mxGeometry relative="1" as="geometry">
            <Array as="points">
              <mxPoint x="290" y="221" />
              <mxPoint x="290" y="633" />
            </Array>
          </mxGeometry>
        </mxCell>
        <mxCell id="8wjIcGyNlAFSRhuU1HUV-28" value="" style="group" parent="WIyWlLk6GJQsqaUBKTNV-1" vertex="1" connectable="0">
          <mxGeometry x="490" y="35" width="320" height="215" as="geometry" />
        </mxCell>
        <mxCell id="8wjIcGyNlAFSRhuU1HUV-14" value="Ajout de nouveau utlisateur" style="text;html=1;strokeColor=none;fillColor=none;align=center;verticalAlign=middle;whiteSpace=wrap;rounded=0;" parent="8wjIcGyNlAFSRhuU1HUV-28" vertex="1">
          <mxGeometry y="17.916666666666668" width="200" height="26.875" as="geometry" />
        </mxCell>
        <mxCell id="8wjIcGyNlAFSRhuU1HUV-15" value="Modification D&#39;utilisateur" style="text;html=1;strokeColor=none;fillColor=none;align=center;verticalAlign=middle;whiteSpace=wrap;rounded=0;" parent="8wjIcGyNlAFSRhuU1HUV-28" vertex="1">
          <mxGeometry y="44.791666666666664" width="200" height="26.875" as="geometry" />
        </mxCell>
        <mxCell id="8wjIcGyNlAFSRhuU1HUV-17" value="Authentification" style="text;html=1;strokeColor=none;fillColor=none;align=center;verticalAlign=middle;whiteSpace=wrap;rounded=0;" parent="8wjIcGyNlAFSRhuU1HUV-28" vertex="1">
          <mxGeometry y="71.66666666666667" width="200" height="26.875" as="geometry" />
        </mxCell>
        <mxCell id="8wjIcGyNlAFSRhuU1HUV-18" value="Gestion Administrateur" style="text;html=1;strokeColor=none;fillColor=none;align=center;verticalAlign=middle;whiteSpace=wrap;rounded=0;" parent="8wjIcGyNlAFSRhuU1HUV-28" vertex="1">
          <mxGeometry y="98.54166666666667" width="200" height="26.875" as="geometry" />
        </mxCell>
        <mxCell id="8wjIcGyNlAFSRhuU1HUV-19" value="Acteur" style="rounded=0;whiteSpace=wrap;html=1;" parent="8wjIcGyNlAFSRhuU1HUV-28" vertex="1">
          <mxGeometry x="200" width="120" height="17.916666666666668" as="geometry" />
        </mxCell>
        <mxCell id="8wjIcGyNlAFSRhuU1HUV-20" value="" style="rounded=0;whiteSpace=wrap;html=1;fillColor=none;" parent="8wjIcGyNlAFSRhuU1HUV-28" vertex="1">
          <mxGeometry x="200" y="17.916666666666668" width="120" height="53.75" as="geometry" />
        </mxCell>
        <mxCell id="8wjIcGyNlAFSRhuU1HUV-21" value="Patients" style="text;html=1;strokeColor=none;fillColor=none;align=center;verticalAlign=middle;whiteSpace=wrap;rounded=0;" parent="8wjIcGyNlAFSRhuU1HUV-28" vertex="1">
          <mxGeometry x="200" y="17.916666666666668" width="120" height="26.875" as="geometry" />
        </mxCell>
        <mxCell id="8wjIcGyNlAFSRhuU1HUV-22" value="Administrateur" style="text;html=1;strokeColor=none;fillColor=none;align=center;verticalAlign=middle;whiteSpace=wrap;rounded=0;" parent="8wjIcGyNlAFSRhuU1HUV-28" vertex="1">
          <mxGeometry x="200" y="44.791666666666664" width="120" height="26.875" as="geometry" />
        </mxCell>
        <mxCell id="8wjIcGyNlAFSRhuU1HUV-23" value="Relations" style="rounded=0;whiteSpace=wrap;html=1;" parent="8wjIcGyNlAFSRhuU1HUV-28" vertex="1">
          <mxGeometry x="200" y="71.66666666666667" width="120" height="17.916666666666668" as="geometry" />
        </mxCell>
        <mxCell id="8wjIcGyNlAFSRhuU1HUV-24" value="" style="rounded=0;whiteSpace=wrap;html=1;fillColor=none;" parent="8wjIcGyNlAFSRhuU1HUV-28" vertex="1">
          <mxGeometry x="200" y="89.58333333333333" width="120" height="71.66666666666667" as="geometry" />
        </mxCell>
        <mxCell id="8wjIcGyNlAFSRhuU1HUV-25" value="Plusieurs Regimes possible pour avoir des recettes personnalisÃ©es" style="text;html=1;strokeColor=none;fillColor=none;align=center;verticalAlign=middle;whiteSpace=wrap;rounded=0;" parent="8wjIcGyNlAFSRhuU1HUV-28" vertex="1">
          <mxGeometry x="200" y="89.58333333333333" width="120" height="71.66666666666667" as="geometry" />
        </mxCell>
        <mxCell id="8wjIcGyNlAFSRhuU1HUV-27" value="" style="group" parent="8wjIcGyNlAFSRhuU1HUV-28" vertex="1" connectable="0">
          <mxGeometry width="200" height="215" as="geometry" />
        </mxCell>
        <mxCell id="8wjIcGyNlAFSRhuU1HUV-11" value="Cas d&#39;utilisations" style="rounded=0;whiteSpace=wrap;html=1;" parent="8wjIcGyNlAFSRhuU1HUV-27" vertex="1">
          <mxGeometry width="200" height="17.916666666666668" as="geometry" />
        </mxCell>
        <mxCell id="8wjIcGyNlAFSRhuU1HUV-12" value="" style="rounded=0;whiteSpace=wrap;html=1;fillColor=none;" parent="8wjIcGyNlAFSRhuU1HUV-27" vertex="1">
          <mxGeometry y="17.916666666666668" width="200" height="143.33333333333334" as="geometry" />
        </mxCell>
        <mxCell id="8wjIcGyNlAFSRhuU1HUV-51" style="edgeStyle=orthogonalEdgeStyle;rounded=0;orthogonalLoop=1;jettySize=auto;html=1;exitX=0.5;exitY=1;exitDx=0;exitDy=0;" parent="8wjIcGyNlAFSRhuU1HUV-27" source="8wjIcGyNlAFSRhuU1HUV-12" target="8wjIcGyNlAFSRhuU1HUV-12" edge="1">
          <mxGeometry relative="1" as="geometry" />
        </mxCell>
        <mxCell id="8wjIcGyNlAFSRhuU1HUV-30" style="edgeStyle=orthogonalEdgeStyle;rounded=0;orthogonalLoop=1;jettySize=auto;html=1;" parent="WIyWlLk6GJQsqaUBKTNV-1" source="8wjIcGyNlAFSRhuU1HUV-29" target="8wjIcGyNlAFSRhuU1HUV-6" edge="1">
          <mxGeometry relative="1" as="geometry">
            <mxPoint x="310" y="630" as="targetPoint" />
            <Array as="points">
              <mxPoint x="250" y="281" />
              <mxPoint x="250" y="607" />
            </Array>
          </mxGeometry>
        </mxCell>
        <mxCell id="8wjIcGyNlAFSRhuU1HUV-36" value="Acteur" style="rounded=0;whiteSpace=wrap;html=1;" parent="WIyWlLk6GJQsqaUBKTNV-1" vertex="1">
          <mxGeometry x="690" y="320" width="120" height="20" as="geometry" />
        </mxCell>
        <mxCell id="8wjIcGyNlAFSRhuU1HUV-37" value="" style="rounded=0;whiteSpace=wrap;html=1;fillColor=none;" parent="WIyWlLk6GJQsqaUBKTNV-1" vertex="1">
          <mxGeometry x="690" y="340" width="120" height="60" as="geometry" />
        </mxCell>
        <mxCell id="8wjIcGyNlAFSRhuU1HUV-38" value="Patients" style="text;html=1;strokeColor=none;fillColor=none;align=center;verticalAlign=middle;whiteSpace=wrap;rounded=0;" parent="WIyWlLk6GJQsqaUBKTNV-1" vertex="1">
          <mxGeometry x="690" y="340" width="120" height="30" as="geometry" />
        </mxCell>
        <mxCell id="8wjIcGyNlAFSRhuU1HUV-39" value="Administrateur" style="text;html=1;strokeColor=none;fillColor=none;align=center;verticalAlign=middle;whiteSpace=wrap;rounded=0;" parent="WIyWlLk6GJQsqaUBKTNV-1" vertex="1">
          <mxGeometry x="690" y="370" width="120" height="30" as="geometry" />
        </mxCell>
        <mxCell id="8wjIcGyNlAFSRhuU1HUV-40" value="Relations" style="rounded=0;whiteSpace=wrap;html=1;" parent="WIyWlLk6GJQsqaUBKTNV-1" vertex="1">
          <mxGeometry x="690" y="400" width="120" height="20" as="geometry" />
        </mxCell>
        <mxCell id="8wjIcGyNlAFSRhuU1HUV-41" value="" style="rounded=0;whiteSpace=wrap;html=1;fillColor=none;" parent="WIyWlLk6GJQsqaUBKTNV-1" vertex="1">
          <mxGeometry x="690" y="420" width="120" height="80" as="geometry" />
        </mxCell>
        <mxCell id="8wjIcGyNlAFSRhuU1HUV-42" value="Recette personnalisÃ©es en fonction des regimes et allergenes" style="text;html=1;strokeColor=none;fillColor=none;align=center;verticalAlign=middle;whiteSpace=wrap;rounded=0;" parent="WIyWlLk6GJQsqaUBKTNV-1" vertex="1">
          <mxGeometry x="690" y="420" width="120" height="80" as="geometry" />
        </mxCell>
        <mxCell id="8wjIcGyNlAFSRhuU1HUV-43" value="" style="group" parent="WIyWlLk6GJQsqaUBKTNV-1" vertex="1" connectable="0">
          <mxGeometry x="490" y="320" width="200" height="220" as="geometry" />
        </mxCell>
        <mxCell id="8wjIcGyNlAFSRhuU1HUV-49" value="" style="group" parent="8wjIcGyNlAFSRhuU1HUV-43" vertex="1" connectable="0">
          <mxGeometry width="200" height="220" as="geometry" />
        </mxCell>
        <mxCell id="8wjIcGyNlAFSRhuU1HUV-44" value="Cas d&#39;utilisations" style="rounded=0;whiteSpace=wrap;html=1;" parent="8wjIcGyNlAFSRhuU1HUV-49" vertex="1">
          <mxGeometry width="200" height="18.333333333333343" as="geometry" />
        </mxCell>
        <mxCell id="8wjIcGyNlAFSRhuU1HUV-45" value="&lt;span style=&quot;white-space: pre;&quot;&gt;&#x9;&lt;/span&gt;&lt;span style=&quot;white-space: pre;&quot;&gt;&#x9;&lt;/span&gt;" style="rounded=0;whiteSpace=wrap;html=1;fillColor=none;strokeColor=default;glass=0;" parent="8wjIcGyNlAFSRhuU1HUV-49" vertex="1">
          <mxGeometry y="18.333333333333343" width="200" height="165" as="geometry" />
        </mxCell>
        <mxCell id="8wjIcGyNlAFSRhuU1HUV-32" value="Ajout de nouvelle Recette" style="text;html=1;strokeColor=none;fillColor=none;align=center;verticalAlign=middle;whiteSpace=wrap;rounded=0;" parent="8wjIcGyNlAFSRhuU1HUV-49" vertex="1">
          <mxGeometry y="18.333333333333343" width="200" height="27.5" as="geometry" />
        </mxCell>
        <mxCell id="8wjIcGyNlAFSRhuU1HUV-33" value="Modification de recette" style="text;html=1;strokeColor=none;fillColor=none;align=center;verticalAlign=middle;whiteSpace=wrap;rounded=0;" parent="8wjIcGyNlAFSRhuU1HUV-49" vertex="1">
          <mxGeometry y="45.83333333333335" width="200" height="27.5" as="geometry" />
        </mxCell>
        <mxCell id="8wjIcGyNlAFSRhuU1HUV-34" value="Envoi de recette ( A voir )" style="text;html=1;strokeColor=none;fillColor=none;align=center;verticalAlign=middle;whiteSpace=wrap;rounded=0;" parent="8wjIcGyNlAFSRhuU1HUV-49" vertex="1">
          <mxGeometry y="73.33333333333337" width="200" height="27.5" as="geometry" />
        </mxCell>
      </root>
    </mxGraphModel>
  </diagram>
</mxfile>
